<?xml version="1.0" encoding="UTF-8"?><svg id="Color_Logo" xmlns="http://www.w3.org/2000/svg" viewBox="0 0 2911.82 729.19"><g id="Text"><path d="M0,727.83v-119.11h14.48l55.45,90.01h-7.77l54.75-90.01h14.48l.18,119.11h-16.95l-.18-93.42h4.06l-48.74,78.95h-8.12l-49.1-78.95h4.41v93.42H0Z" fill="#0f575c"/><path d="M182.08,727.83v-119.11h87.24v14.8h-69.58v89.5h72.05v14.8h-89.71ZM198.15,674.57v-14.46h63.58v14.46h-63.58Z" fill="#0f575c"/><path d="M349.85,729.19c-9.42,0-18.43-1.39-27.02-4.17-8.6-2.78-15.36-6.38-20.31-10.81l6.53-13.27c4.71,3.97,10.71,7.26,18.01,9.87,7.3,2.61,14.89,3.91,22.78,3.91,7.18,0,13.01-.79,17.48-2.38,4.47-1.59,7.77-3.77,9.89-6.55,2.12-2.78,3.18-5.93,3.18-9.44,0-4.08-1.38-7.37-4.15-9.87-2.77-2.49-6.36-4.51-10.77-6.04-4.42-1.53-9.27-2.86-14.57-4-5.3-1.13-10.63-2.47-15.98-4-5.36-1.53-10.24-3.49-14.66-5.87-4.41-2.38-7.98-5.59-10.68-9.61-2.71-4.03-4.06-9.21-4.06-15.57s1.68-11.77,5.03-16.93c3.36-5.16,8.53-9.3,15.54-12.42,7-3.12,15.92-4.68,26.76-4.68,7.18,0,14.3.91,21.37,2.72,7.06,1.82,13.18,4.42,18.37,7.83l-5.83,13.61c-5.3-3.4-10.89-5.87-16.78-7.4-5.89-1.53-11.6-2.3-17.13-2.3-6.95,0-12.66.85-17.13,2.55-4.48,1.7-7.74,3.97-9.8,6.81-2.06,2.84-3.09,6.01-3.09,9.53,0,4.2,1.38,7.55,4.15,10.04,2.77,2.5,6.36,4.48,10.77,5.96,4.41,1.48,9.27,2.81,14.57,4,5.3,1.19,10.62,2.53,15.98,4,5.36,1.48,10.24,3.4,14.66,5.79,4.41,2.38,7.98,5.56,10.68,9.53,2.71,3.97,4.06,9.08,4.06,15.31s-1.71,11.6-5.12,16.76c-3.42,5.16-8.68,9.3-15.81,12.42-7.13,3.12-16.1,4.68-26.93,4.68Z" fill="#0f575c"/><path d="M436.91,727.83v-119.11h17.66v119.11h-17.66ZM452.81,674.74v-14.8h74.35v14.8h-74.35ZM525.57,727.83v-119.11h17.66v119.11h-17.66Z" fill="#0f575c"/><path d="M654.66,727.83v-119.11h14.48l81.77,97.84h-7.59v-97.84h17.66v119.11h-14.48l-81.77-97.84h7.59v97.84h-17.66Z" fill="#0f575c"/><path d="M811.48,727.83v-119.11h87.24v14.8h-69.58v89.5h72.05v14.8h-89.71ZM827.56,674.57v-14.46h63.58v14.46h-63.58Z" fill="#0f575c"/><path d="M967.78,727.83v-104.31h-42.38v-14.8h102.25v14.8h-42.38v104.31h-17.48Z" fill="#0f575c"/><path d="M1087.34,727.83l-41.33-119.11h18.19l37.97,109.92h-9.18l39.38-109.92h16.25l38.5,109.92h-8.83l38.5-109.92h16.78l-41.33,119.11h-18.54l-36.03-101.93h4.77l-36.2,101.93h-18.9Z" fill="#0f575c"/><path d="M1323.1,729.19c-9.42,0-18.16-1.53-26.23-4.59-8.07-3.06-15.04-7.34-20.93-12.85-5.89-5.5-10.48-11.94-13.78-19.31-3.3-7.37-4.94-15.43-4.94-24.16s1.65-16.79,4.94-24.16c3.3-7.37,7.89-13.81,13.78-19.31,5.89-5.5,12.83-9.78,20.84-12.85,8.01-3.06,16.78-4.59,26.31-4.59s18.13,1.5,26.14,4.51c8.01,3.01,14.95,7.26,20.84,12.76,5.89,5.5,10.45,11.97,13.69,19.4,3.24,7.43,4.86,15.51,4.86,24.25s-1.62,16.96-4.86,24.33c-3.24,7.38-7.8,13.81-13.69,19.31-5.89,5.5-12.83,9.76-20.84,12.76-8.01,3.01-16.72,4.51-26.14,4.51ZM1322.93,714.05c6.95,0,13.33-1.13,19.16-3.4,5.83-2.27,10.89-5.47,15.19-9.61,4.3-4.14,7.65-8.99,10.07-14.55,2.41-5.56,3.62-11.63,3.62-18.21s-1.21-12.62-3.62-18.12c-2.41-5.5-5.77-10.35-10.07-14.55-4.3-4.2-9.36-7.43-15.19-9.7-5.83-2.27-12.22-3.4-19.16-3.4s-13.16,1.13-18.98,3.4c-5.83,2.27-10.92,5.5-15.28,9.7-4.36,4.2-7.74,9.05-10.15,14.55-2.41,5.5-3.62,11.54-3.62,18.12s1.21,12.65,3.62,18.21c2.41,5.56,5.8,10.41,10.15,14.55,4.35,4.14,9.45,7.35,15.28,9.61,5.83,2.27,12.15,3.4,18.98,3.4Z" fill="#0f575c"/><path d="M1429.07,727.83v-119.11h48.21c16.01,0,28.61,3.66,37.79,10.98,9.18,7.32,13.78,17.5,13.78,30.54,0,8.62-2.06,16.02-6.18,22.21-4.12,6.18-10.01,10.92-17.66,14.21-7.66,3.29-16.9,4.93-27.73,4.93h-38.5l7.95-7.83v44.07h-17.66ZM1446.73,685.46l-7.95-8.34h37.97c11.3,0,19.87-2.35,25.7-7.06,5.83-4.71,8.74-11.32,8.74-19.82s-2.91-15.09-8.74-19.74c-5.83-4.65-14.39-6.98-25.7-6.98h-37.97l7.95-8.51v70.45ZM1511.72,727.83l-31.44-43.22h18.9l31.79,43.22h-19.25Z" fill="#0f575c"/><path d="M1570.88,727.83v-119.11h17.66v119.11h-17.66ZM1586.42,699.07l-.88-20.76,70.11-69.6h20.13l-54.22,55.13-9.89,10.55-25.25,24.67ZM1658.47,727.83l-50.69-56.83,11.83-12.59,59.52,69.43h-20.66Z" fill="#0f575c"/><path d="M1808.23,729.19c-9.42,0-18.43-1.39-27.02-4.17-8.6-2.78-15.36-6.38-20.31-10.81l6.53-13.27c4.71,3.97,10.71,7.26,18.01,9.87,7.3,2.61,14.89,3.91,22.78,3.91,7.18,0,13.01-.79,17.48-2.38,4.47-1.59,7.77-3.77,9.89-6.55,2.12-2.78,3.18-5.93,3.18-9.44,0-4.08-1.38-7.37-4.15-9.87-2.77-2.49-6.36-4.51-10.77-6.04-4.42-1.53-9.27-2.86-14.57-4-5.3-1.13-10.63-2.47-15.98-4-5.36-1.53-10.24-3.49-14.66-5.87-4.41-2.38-7.98-5.59-10.68-9.61-2.71-4.03-4.06-9.21-4.06-15.57s1.68-11.77,5.03-16.93c3.35-5.16,8.53-9.3,15.54-12.42,7-3.12,15.92-4.68,26.76-4.68,7.18,0,14.31.91,21.37,2.72,7.06,1.82,13.18,4.42,18.37,7.83l-5.83,13.61c-5.3-3.4-10.89-5.87-16.78-7.4-5.89-1.53-11.6-2.3-17.13-2.3-6.95,0-12.66.85-17.13,2.55-4.48,1.7-7.74,3.97-9.8,6.81-2.06,2.84-3.09,6.01-3.09,9.53,0,4.2,1.38,7.55,4.15,10.04,2.77,2.5,6.36,4.48,10.77,5.96,4.41,1.48,9.27,2.81,14.57,4,5.3,1.19,10.62,2.53,15.98,4,5.36,1.48,10.24,3.4,14.66,5.79,4.41,2.38,7.98,5.56,10.68,9.53,2.71,3.97,4.06,9.08,4.06,15.31s-1.71,11.6-5.12,16.76c-3.42,5.16-8.68,9.3-15.81,12.42-7.13,3.12-16.1,4.68-26.93,4.68Z" fill="#0f575c"/><path d="M1951.1,729.19c-9.42,0-18.16-1.53-26.22-4.59-8.07-3.06-15.04-7.34-20.93-12.85-5.89-5.5-10.48-11.94-13.78-19.31-3.3-7.37-4.95-15.43-4.95-24.16s1.65-16.79,4.95-24.16c3.3-7.37,7.89-13.81,13.78-19.31,5.89-5.5,12.83-9.78,20.84-12.85,8.01-3.06,16.78-4.59,26.31-4.59s18.13,1.5,26.14,4.51c8.01,3.01,14.95,7.26,20.84,12.76,5.89,5.5,10.45,11.97,13.69,19.4,3.24,7.43,4.86,15.51,4.86,24.25s-1.62,16.96-4.86,24.33c-3.24,7.38-7.8,13.81-13.69,19.31-5.89,5.5-12.83,9.76-20.84,12.76-8.01,3.01-16.72,4.51-26.14,4.51ZM1950.92,714.05c6.95,0,13.33-1.13,19.16-3.4,5.83-2.27,10.89-5.47,15.19-9.61,4.3-4.14,7.65-8.99,10.07-14.55,2.41-5.56,3.62-11.63,3.62-18.21s-1.21-12.62-3.62-18.12c-2.41-5.5-5.77-10.35-10.07-14.55-4.3-4.2-9.36-7.43-15.19-9.7-5.83-2.27-12.22-3.4-19.16-3.4s-13.16,1.13-18.99,3.4c-5.83,2.27-10.92,5.5-15.28,9.7-4.36,4.2-7.74,9.05-10.15,14.55-2.41,5.5-3.62,11.54-3.62,18.12s1.21,12.65,3.62,18.21c2.41,5.56,5.8,10.41,10.15,14.55,4.36,4.14,9.45,7.35,15.28,9.61,5.83,2.27,12.16,3.4,18.99,3.4Z" fill="#0f575c"/><path d="M2057.06,727.83v-119.11h17.66v104.31h66.93v14.8h-84.59Z" fill="#0f575c"/><path d="M2224.48,729.19c-16.25,0-29.02-4.48-38.32-13.44-9.3-8.96-13.95-22.06-13.95-39.31v-67.72h17.66v67.04c0,13.27,3.03,22.97,9.1,29.1,6.06,6.13,14.63,9.19,25.69,9.19s19.81-3.06,25.87-9.19c6.06-6.13,9.1-15.83,9.1-29.1v-67.04h17.13v67.72c0,17.25-4.62,30.35-13.86,39.31-9.24,8.96-22.05,13.44-38.41,13.44Z" fill="#0f575c"/><path d="M2348.63,727.83v-104.31h-42.38v-14.8h102.25v14.8h-42.39v104.31h-17.48Z" fill="#0f575c"/><path d="M2441.17,727.83v-119.11h17.66v119.11h-17.66Z" fill="#0f575c"/><path d="M2565.14,729.19c-9.42,0-18.16-1.53-26.22-4.59-8.07-3.06-15.04-7.34-20.93-12.85-5.89-5.5-10.48-11.94-13.78-19.31-3.3-7.37-4.95-15.43-4.95-24.16s1.65-16.79,4.95-24.16c3.3-7.37,7.89-13.81,13.78-19.31,5.89-5.5,12.83-9.78,20.84-12.85,8.01-3.06,16.78-4.59,26.31-4.59s18.13,1.5,26.14,4.51c8.01,3.01,14.95,7.26,20.84,12.76,5.89,5.5,10.45,11.97,13.69,19.4,3.24,7.43,4.86,15.51,4.86,24.25s-1.62,16.96-4.86,24.33c-3.24,7.38-7.8,13.81-13.69,19.31-5.89,5.5-12.83,9.76-20.84,12.76-8.01,3.01-16.72,4.51-26.14,4.51ZM2564.97,714.05c6.95,0,13.33-1.13,19.16-3.4,5.83-2.27,10.89-5.47,15.19-9.61,4.3-4.14,7.65-8.99,10.07-14.55,2.41-5.56,3.62-11.63,3.62-18.21s-1.21-12.62-3.62-18.12c-2.41-5.5-5.77-10.35-10.07-14.55-4.3-4.2-9.36-7.43-15.19-9.7-5.83-2.27-12.22-3.4-19.16-3.4s-13.16,1.13-18.99,3.4c-5.83,2.27-10.92,5.5-15.28,9.7-4.36,4.2-7.74,9.05-10.16,14.55-2.41,5.5-3.62,11.54-3.62,18.12s1.21,12.65,3.62,18.21c2.41,5.56,5.8,10.41,10.16,14.55,4.35,4.14,9.45,7.35,15.28,9.61,5.83,2.27,12.16,3.4,18.99,3.4Z" fill="#0f575c"/><path d="M2671.11,727.83v-119.11h14.48l81.77,97.84h-7.59v-97.84h17.66v119.11h-14.48l-81.77-97.84h7.59v97.84h-17.66Z" fill="#0f575c"/><path d="M2863.96,729.19c-9.42,0-18.43-1.39-27.02-4.17-8.6-2.78-15.36-6.38-20.31-10.81l6.53-13.27c4.71,3.97,10.71,7.26,18.01,9.87,7.3,2.61,14.89,3.91,22.78,3.91,7.18,0,13.01-.79,17.48-2.38,4.47-1.59,7.77-3.77,9.89-6.55,2.12-2.78,3.18-5.93,3.18-9.44,0-4.08-1.39-7.37-4.15-9.87-2.77-2.49-6.36-4.51-10.77-6.04s-9.27-2.86-14.57-4c-5.3-1.13-10.63-2.47-15.98-4-5.36-1.53-10.24-3.49-14.66-5.87-4.41-2.38-7.98-5.59-10.68-9.61-2.71-4.03-4.06-9.21-4.06-15.57s1.68-11.77,5.03-16.93c3.36-5.16,8.54-9.3,15.54-12.42,7-3.12,15.92-4.68,26.76-4.68,7.18,0,14.31.91,21.37,2.72,7.06,1.82,13.19,4.42,18.37,7.83l-5.83,13.61c-5.3-3.4-10.89-5.87-16.78-7.4-5.89-1.53-11.6-2.3-17.13-2.3-6.95,0-12.66.85-17.13,2.55-4.48,1.7-7.74,3.97-9.8,6.81-2.06,2.84-3.09,6.01-3.09,9.53,0,4.2,1.38,7.55,4.15,10.04,2.77,2.5,6.36,4.48,10.77,5.96,4.41,1.48,9.27,2.81,14.57,4,5.3,1.19,10.62,2.53,15.98,4,5.36,1.48,10.24,3.4,14.66,5.79,4.41,2.38,7.97,5.56,10.68,9.53,2.71,3.97,4.06,9.08,4.06,15.31s-1.71,11.6-5.12,16.76c-3.42,5.16-8.68,9.3-15.81,12.42-7.12,3.12-16.1,4.68-26.93,4.68Z" fill="#0f575c"/><path d="M2459.5,532.73l186.16-234.66-2.31,64.07-176.92-230.19h133.85l112.31,149.74-50.77,1.49,115.39-151.23h128.46l-179.23,227.21.77-62.58,184.62,236.15h-136.15l-117.69-159.42,50,6.7-116.16,152.72h-132.31Z" fill="#083b43"/><path d="M2134.71,538.69c-34.88,0-65.65-6.45-92.31-19.37-26.67-12.91-47.44-32.78-62.31-59.6-14.88-26.82-22.31-60.59-22.31-101.31v-226.47h120v208.59c0,33.78,7.31,58.48,21.92,74.12s35.25,23.47,61.92,23.47c18.46,0,34.87-3.97,49.23-11.92,14.35-7.94,25.77-19.86,34.23-35.76,8.46-15.89,12.69-35.76,12.69-59.6v-198.9h119.23v400.79h-113.85v-111l20.77,32.78c-14.36,27.82-34.88,48.79-61.54,62.95-26.67,14.15-55.9,21.23-87.69,21.23Z" fill="#083b43"/><path d="M1742.01,532.73V11.26h120v521.47h-120Z" fill="#083b43"/><path d="M1270.17,532.73V11.26h406.93v96.84h-281.54v424.63h-125.39ZM1385.55,342.77v-96.84h258.46v96.84h-258.46Z" fill="#083b43"/></g><g id="Graphic"><line x1="91.33" y1="374.31" x2="362.93" y2="127.9" fill="none" stroke="#083b43" stroke-miterlimit="10" stroke-width="50"/><line x1="359.34" y1="131.35" x2="629.73" y2="216.35" fill="none" stroke="#0f575c" stroke-miterlimit="10" stroke-width="50"/><line x1="629.74" y1="216.34" x2="879.85" y2="88.45" fill="none" stroke="#178283" stroke-miterlimit="10" stroke-width="50"/><line x1="879.85" y1="88.45" x2="1113.75" y2="453.51" fill="none" stroke="#64c7c3" stroke-miterlimit="10" stroke-width="50"/><ellipse cx="91.33" cy="374.31" rx="91.33" ry="88.45" fill="#083b43"/><ellipse cx="362.93" cy="127.9" rx="91.33" ry="88.45" fill="#0f575c"/><ellipse cx="629.73" cy="216.35" rx="91.33" ry="88.45" fill="#178283"/><ellipse cx="876.53" cy="88.45" rx="91.33" ry="88.45" fill="#178283"/><ellipse cx="1113.75" cy="453.51" rx="91.33" ry="88.45" fill="#64c7c3"/></g></svg>